<svg xmlns="http://www.w3.org/2000/svg" viewBox="0 0 1921 483.09"><defs><style>.cls-1{fill:#2fac35;}.cls-2{fill:#c7f2d2;}</style></defs><title>Untitled-1</title><g id="Layer_2" data-name="Layer 2"><path class="cls-1" d="M-.5,383.5S125.36,314,288,373c160,58,199.5,118.5,433.5,108.5s472.59-113.37,663-106c219.5,8.5,316.5,107.5,435,102,83.27-3.86,101-23,101-23V-.5H-.5Z" transform="translate(0.5 0.5)"/></g><g id="Layer_1" data-name="Layer 1"><path class="cls-2" d="M-.5,263.5s281.5-31.5,462,65c175.46,93.81,397.5,66.5,555,19,96-29,357.25-125.86,512-76,209.5,67.5,282,89,392,52V-.5H-.5Z" transform="translate(0.5 0.5)"/></g></svg>